<?xml version="1.0" encoding="utf-8"?>
<!-- Generator: Adobe Illustrator 25.4.1, SVG Export Plug-In . SVG Version: 6.00 Build 0)  -->
<svg version="1.1" id="Layer_1" xmlns="http://www.w3.org/2000/svg" xmlns:xlink="http://www.w3.org/1999/xlink" x="0px" y="0px"
	 viewBox="0 0 841.89 595.28" style="enable-background:new 0 0 841.89 595.28;" xml:space="preserve">
<style type="text/css">
	.st0{fill:#11437F;}
</style>
<g>
	<path class="st0" d="M46.28,223.52c20.45,0,34.27,6.04,41.46,18.11c7.18,12.08,10.78,26.14,10.78,42.17
		c0,16.94-4.1,31.32-12.3,43.12c-8.2,11.8-21.85,17.71-40.95,17.71H30.05c-5.07,0-9.51-1.8-13.31-5.41
		c-3.8-3.61-5.71-8.47-5.71-14.6V223.52H46.28z M37.41,325.17h12.02c6.62,0,12.06-3.33,16.32-10c4.26-6.67,6.4-17.39,6.4-32.17
		c0-14.78-1.96-25.14-5.88-31.09c-3.92-5.95-9.1-8.92-15.54-8.92H37.41V325.17z"/>
	<path class="st0" d="M196.91,232.71c7.77,6.85,12.26,15.86,13.44,27.04h-26.37c-0.51-5.23-2.54-9.5-6.09-12.84
		c-3.55-3.33-8.46-5-14.71-5c-6.76,0-12.64,3.75-17.62,11.24c-4.99,7.49-7.48,18.08-7.48,31.77c0,14.62,2.54,25.16,7.61,31.63
		c5.07,6.48,11.24,9.71,18.51,9.71c6.93,0,11.96-2.72,15.09-8.17c3.13-5.45,4.77-11.55,4.94-18.32h-20.54V280.3h49.45v65.42h-26.37
		v-11.9c-2,3.6-5.59,6.49-10.76,8.65c-5.17,2.16-11.09,3.24-17.76,3.24c-12.68,0-23.6-5.18-32.78-15.54
		c-9.18-10.36-13.76-25.46-13.76-45.28c0-19.28,4.77-34.51,14.33-45.69c9.55-11.17,21.77-16.76,36.64-16.76
		C177.72,222.44,189.14,225.87,196.91,232.71z"/>
	<path class="st0" d="M274,223.52c11.32,0,20.24,2.93,26.75,8.79c6.51,5.86,9.76,13.29,9.76,22.3c0,6.49-1.74,12.12-5.2,16.9
		c-3.47,4.78-8.16,7.89-14.07,9.33c6.42,0.72,12.21,3.7,17.37,8.92c5.15,5.23,7.73,11.9,7.73,20.01c0,9.91-3.59,18.21-10.78,24.87
		c-7.19,6.67-17.2,10-30.05,10h-22.57c-5.24,0-9.72-1.8-13.44-5.41c-3.72-3.61-5.58-8.47-5.58-14.6V223.52H274z M260.31,271.91
		h11.92c3.8,0,6.74-1.49,8.81-4.46c2.07-2.97,3.11-6.44,3.11-10.41c0-3.42-0.99-6.62-2.98-9.6c-1.99-2.97-4.71-4.46-8.16-4.46h-12.7
		V271.91z M260.31,325.17h12.64c5.5,0,9.72-1.67,12.64-5c2.92-3.33,4.39-7.07,4.39-11.22c0-4.33-1.34-8.33-4-12.03
		c-2.67-3.69-6.75-5.54-12.25-5.54h-13.42V325.17z"/>
	<path class="st0" d="M409.93,218.38v45.96h4.56v-45.96h25.36V351.4h-25.36v-68.13h-4.56v68.13h-25.36v-13.25h-42.09
		c-3.14,0-5.66-1.04-7.56-3.11c-1.9-2.07-2.84-4.82-2.84-8.25V221.09h48.69v18.92h-23.33v79.21h27.13V218.38H409.93z"/>
	<path class="st0" d="M563.48,226.9c1.27,1.35,1.9,3.38,1.9,6.08c0,5.23-0.04,12.26-0.13,21.09c-0.09,8.83-1.9,17.75-5.45,26.76H574
		v18.92h-45.9v51.64h-25.36v-51.64h-43.62v-18.92h73.54c2.87-4.68,4.6-10.09,5.2-16.22c0.59-6.12,0.97-13.07,1.14-20.82h-71.77
		v-18.92h90.53C560.31,224.87,562.21,225.55,563.48,226.9z"/>
	<path class="st0" d="M704.6,301.11H588.71v-18.92H704.6V301.11z M683.12,228.37c8.74,5.75,13.11,12.93,13.11,21.51
		c0,8.41-4.37,15.53-13.11,21.37c-8.74,5.85-20.85,8.77-36.34,8.77c-15.48,0-27.6-2.92-36.34-8.77
		c-8.74-5.85-13.11-12.97-13.11-21.37c0-8.58,4.37-15.76,13.11-21.51c8.74-5.75,20.85-8.63,36.34-8.63
		C662.26,219.74,674.38,222.62,683.12,228.37z M600.12,305.17h25.36v25.95h70.75v18.92h-85.46c-3.21,0-5.79-1.04-7.74-3.11
		c-1.95-2.07-2.92-4.82-2.92-8.25V305.17z M628.84,242.31c-4.1,2.43-6.15,4.96-6.15,7.57c0,2.61,2.05,5.14,6.15,7.57
		c4.1,2.43,10.08,3.65,17.94,3.65c7.85,0,13.83-1.22,17.94-3.65c4.1-2.43,6.15-4.96,6.15-7.57c0-2.61-2.1-5.13-6.28-7.57
		c-4.19-2.43-10.13-3.65-17.81-3.65C638.92,238.66,632.94,239.88,628.84,242.31z"/>
	<path class="st0" d="M760.39,226.5h13.95v18.92h-9.89c3.55,2.16,6.25,5.27,8.11,9.33c1.86,4.06,2.79,7.98,2.79,11.76
		c0,8.29-2.37,15.19-7.1,20.68c-4.74,5.5-11.25,8.25-19.53,8.25c-7.78,0-14.07-2.75-18.89-8.25c-4.82-5.5-7.23-12.39-7.23-20.68
		c0-3.79,0.97-7.71,2.92-11.76c1.94-4.06,4.52-7.16,7.73-9.33H722.6V226.5h14.96v-7.03h22.82V226.5z M801.47,218.93v22.17h4.57
		v-22.17h22.82v82.73h-18.51c6.42,2.53,11.11,5.86,14.07,10c2.96,4.15,4.44,8.29,4.44,12.44c0,8.65-4.96,15.59-14.86,20.82
		c-9.91,5.23-21.52,7.84-34.84,7.84s-24.94-2.61-34.84-7.84c-9.91-5.23-14.86-12.17-14.86-20.82s4.9-15.59,14.71-20.82
		c9.8-5.23,21.3-7.84,34.49-7.84c4.22,0,9.21,0.54,14.96,1.62c5.75,1.08,9.89,2.07,12.43,2.97v-40.01h-4.57v35.15h-22.82v-76.24
		H801.47z M744.79,257.32c-1.1,1.8-1.65,4.51-1.65,8.11c0,3.61,0.55,6.31,1.65,8.11c1.1,1.8,2.49,2.7,4.18,2.7
		c1.69,0,3.08-0.9,4.18-2.7c1.1-1.8,1.65-4.5,1.65-8.11c0-3.6-0.55-6.31-1.65-8.11c-1.1-1.8-2.5-2.7-4.18-2.7
		C747.28,254.61,745.89,255.52,744.79,257.32z M762.58,315.17c-5.18,2.16-7.77,5.14-7.77,8.92c0,3.79,2.59,6.76,7.77,8.92
		c5.18,2.16,10.7,3.24,16.57,3.24c6.04,0,11.61-1.08,16.71-3.24c5.09-2.16,7.64-5.14,7.64-8.92c0-3.78-2.55-6.76-7.64-8.92
		c-5.1-2.16-10.66-3.25-16.71-3.25C773.28,311.93,767.76,313.01,762.58,315.17z"/>
</g>
</svg>
